<!--?xml version="1.0" encoding="utf-8"?-->
<!-- Generator: Adobe Illustrator 24.1.1, SVG Export Plug-In . SVG Version: 6.00 Build 0)  -->
<svg version="1.1" id="_x31_0" xmlns="http://www.w3.org/2000/svg" xmlns:xlink="http://www.w3.org/1999/xlink" x="0px" y="0px" viewBox="0 0 512 512" style="width: 256px; height: 256px; opacity: 1;" xml:space="preserve">
<style type="text/css">
	.st0{fill:#374149;}
</style>
<g>
	<path class="st0" d="M422.93,121.876c-1.413-0.337-2.805-0.476-4.21-0.726c-1.968-18.375-4.394-29.627-4.866-31.613l0.01,0.042
		l-5.12-21.985H12.298L7.275,89.582C6.511,92.869,0.003,122.389,0,167.57c-0.003,63.17,12.77,157.03,72.23,251.55
		c9.864,15.761,27.059,25.302,45.754,25.286h185.173c18.631,0.014,35.816-9.528,45.69-25.293l-0.014,0.014
		c15.081-23.897,27.046-47.783,36.629-71.167c3.856,0.417,7.736,0.698,11.669,0.698c0.892-0.003,1.958-0.01,3.106-0.083v0.01
		c0.062-0.003,0.118-0.014,0.181-0.014c0.069-0.007,0.114,0,0.187-0.007l-0.003-0.007c61.529-1.915,111.35-53.042,111.398-114.769
		C511.958,180.724,474.598,133.847,422.93,121.876z M448.951,302.793c-13.911,10.468-31.02,16.906-49.617,17.358
		c-0.711,0.073-1.493,0.073-2.204,0.073c-1.493,0-2.985-0.073-4.405-0.142c-1.107-0.058-2.228-0.135-3.374-0.232
		c-0.257-0.038-0.472-0.028-0.742-0.08c3.978-11.579,7.386-22.943,10.225-34.022c2.402-0.053,4.738-0.354,7.026-0.743
		c0.763-0.132,1.541-0.236,2.29-0.395c23.387-5.047,41.012-25.873,41.012-50.822c0-21.186-12.794-39.526-31.061-47.558
		c-1.423-0.638-2.915-1.207-4.408-1.777c0.413-12.415,0.35-23.88-0.034-34.251c-0.01-0.374-0.007-0.77-0.018-1.142
		c0.989,0.142,1.909,0.35,2.826,0.562c21.342,4.862,39.675,17.694,51.765,35.157c0.153,0.218,0.322,0.423,0.472,0.642
		c1.315,1.937,2.554,3.933,3.71,5.978c0.014,0.024,0.031,0.048,0.049,0.076c7.07,12.516,11.106,26.958,11.106,42.314
		c0,17.566-5.275,33.925-14.321,47.583C463.762,289.617,456.847,296.826,448.951,302.793z M43.026,280.305
		c-0.153-0.598-0.33-1.202-0.479-1.794c-14.12-55.896-15.091-105.207-13.086-138.465c0.073-1.153,0.135-2.354,0.215-3.468
		c0.014-0.184,0.028-0.354,0.042-0.538c1.815-25.126,5.242-40.016,5.242-40.016h351.154c0,0,2.558,11.09,4.478,30.283
		c0.57,6.254,1.135,13.363,1.493,21.253v0.073c0.426,10.232,0.569,21.749,0.142,34.403c-0.215,6.894-0.57,14.148-1.208,21.679
		c-1.423,17.633-4.054,36.823-8.317,57.083c-1.492,6.966-3.13,14.002-4.977,21.182h-0.07c-2.774,10.805-6.116,21.822-10.094,32.984
		h-0.073c0,0,0.073,0,0.073,0.07c-2.277,6.609-4.766,13.224-7.466,19.975c-9.17,22.675-20.756,45.847-35.33,69.022
		c-4.62,7.393-12.863,11.943-21.61,11.943H117.983c-8.816,0-16.987-4.55-21.679-11.943c-24.134-38.399-40.041-76.787-50.335-112.794
		C44.927,287.566,43.955,283.925,43.026,280.305z M412.274,207.132c9.594,5.47,15.564,15.563,15.564,26.656
		c0,11.986-7.164,22.686-17.667,27.691c-1.947,0.906-3.97,1.676-6.13,2.155C408.223,243.617,410.782,224.666,412.274,207.132z" style="fill: rgb(75, 75, 75);"></path>
	<path class="st0" d="M208.188,141.517c4.905-3.339,2.489-11.159-3.481-11.159H66.447c-2.916,30.78-3.839,85.017,13.224,147.358
		c1.493,5.474,9.024,6.043,11.37,0.923c12.582-27.226,30.995-55.444,54.667-81.958C165.469,174.644,186.794,156.019,208.188,141.517
		z" style="fill: rgb(75, 75, 75);"></path>
	<path class="st0" d="M422.943,121.879h-0.003C422.943,121.879,422.943,121.879,422.943,121.879l-0.01-0.003l-0.038-0.01
		c0.006,0.006,0.017,0.006,0.027,0.006l-0.027-0.006c0.01,0.006,0.021,0.006,0.034,0.01c0,0,0.003,0,0.007,0.003
		C422.94,121.879,422.943,121.879,422.943,121.879z" style="fill: rgb(75, 75, 75);"></path>
</g>
</svg>
